PathFileType	3	(X/Y/Z)	C:\Users\koon_\Desktop\
DataRate	CameraRate	NumFrames	NumMarkers	Units	OrigDataRate	OrigDataStartFrame	OrigNumFrames
100.0	100.0	13	27	mm	100.0	561	4482	
Frame#	Time	get:LFHD			get:RFHD			get:LBHD			get:RBHD			get:C7			get:T10			get:CLAV			get:STRN			get:RBAK			get:LSHO			get:LUPA			get:LELB			get:LFRA			get:LWRA			get:LWRB			get:LFIN			get:RSHO			get:RUPA			get:RELB			get:RFRA			get:RWRA			get:RWRB			get:RFIN			get:LASI			get:RASI			get:LPSI			get:RPSI			
		X1	Y1	Z1	X2	Y2	Z2	X3	Y3	Z3	X4	Y4	Z4	X5	Y5	Z5	X6	Y6	Z6	X7	Y7	Z7	X8	Y8	Z8	X9	Y9	Z9	X10	Y10	Z10	X11	Y11	Z11	X12	Y12	Z12	X13	Y13	Z13	X14	Y14	Z14	X15	Y15	Z15	X16	Y16	Z16	X17	Y17	Z17	X18	Y18	Z18	X19	Y19	Z19	X20	Y20	Z20	X21	Y21	Z21	X22	Y22	Z22	X23	Y23	Z23	X24	Y24	Z24	X25	Y25	Z25	X26	Y26	Z26	X27	Y27	Z27	
561	5.6	106.70757	1573.3873	-74.254318	-49.634701	1562.7062	-68.483353	97.149849	1565.4221	-198.84891	-29.61635	1567.8356	-213.35233	15.598946	1370.3368	-232.59943	-9.823266	1119.4343	-258.06012	56.803143	1304.2538	-56.296417	64.051186	1117.9667	-4.0074749	-87.387886	1312.0891	-232.4588	196.40712	1351.2534	-185.80869	247.58231	1200.5985	-183.47784	252.97775	1018.9915	-212.01006	240.63905	924.05005	-129.19838	218.19919	829.42828	-111.03345	269.64899	822.5799	-157.54608	269.45438	745.85577	-109.12414	-86.559776	1396.0962	-126.69715	-101.69402	1380.1271	37.304424	-105.23483	1342.7159	147.84627	-15.138477	1390.5135	186.13741	78.018387	1392.7861	314.004	12.298067	1400.1013	342.08395	77.742416	1449.8199	368.11191	162.52838	927.74121	-72.09993	-114.96429	917.31891	-41.417461	55.09573	955.3006	-263.68411	-53.741943	947.20624	-249.72536
562	5.61	107.53242	1573.2283	-73.923653	-48.934803	1562.8445	-68.522049	98.096817	1565.281	-198.61119	-28.456291	1568.1573	-214.01193	16.811556	1370.2377	-232.68372	-8.7569151	1119.1675	-258.17447	56.807835	1304.2858	-56.04229	63.82148	1118.092	-4.0347571	-85.789955	1311.7786	-233.45071	197.18781	1351.1287	-184.83707	248.35117	1200.546	-182.74867	253.84747	1018.9528	-211.51631	241.3306	924.12476	-128.63403	218.86794	829.55634	-110.30489	270.28537	822.56952	-156.78377	270.1582	746.05859	-108.15405	-86.678505	1395.7706	-127.57372	-107.95757	1380.0782	36.31163	-115.68946	1342.4493	146.59401	-27.756922	1390.7844	188.97148	59.508213	1393.0862	320.86667	-7.0464144	1400.0486	347.17972	56.355793	1449.6008	375.86401	162.64072	927.70068	-71.89238	-114.95739	917.20673	-41.636478	55.53862	955.26971	-263.61835	-53.372021	947.14783	-249.79535
563	5.62	108.24762	1573.0709	-73.665703	-48.208794	1562.9999	-68.516083	99.118767	1565.1577	-198.35252	-27.409887	1568.207	-213.82777	17.992666	1370.2106	-232.72746	-7.6121626	1118.9358	-258.25555	57.271294	1304.4596	-55.658413	63.355213	1117.8258	-3.798048	-84.282753	1311.5145	-234.21695	197.90604	1351.0087	-183.9184	249.08862	1200.4834	-181.88789	254.81436	1018.8801	-210.92322	242.01472	924.13123	-128.0835	219.60617	829.70142	-109.53711	271.14185	822.5965	-155.9223	270.98251	746.24774	-107.15405	-86.698784	1395.495	-128.37538	-114.26538	1380.0558	35.095402	-126.20695	1342.0961	145.11659	-41.096622	1390.9308	191.25395	40.250793	1393.377	327.30798	-28.223667	1398.7992	347.60947	33.854927	1449.1968	382.92282	162.72018	927.68481	-71.675522	-114.94315	917.13434	-41.845295	55.97961	955.25275	-263.61896	-52.992897	947.15344	-249.93745
564	5.63	109.10154	1572.9354	-73.270203	-47.39024	1563.1481	-68.442619	100.12067	1565.0197	-198.01715	-26.412464	1568.3422	-213.80461	19.223675	1370.1462	-232.64874	-6.5697589	1118.7053	-258.23367	56.618153	1304.401	-55.432323	63.042103	1117.7406	-3.5930526	-82.619186	1311.3816	-235.15419	198.7126	1350.8948	-182.88362	249.86382	1200.4424	-180.85353	255.78812	1018.8949	-210.36159	242.7769	924.17145	-127.45753	220.33525	829.77936	-108.97578	271.88934	822.57855	-155.23865	271.74246	746.43878	-106.21448	-86.677544	1395.2317	-129.04688	-120.61107	1379.9916	33.749111	-136.84059	1341.6416	143.20709	-54.417625	1391.2236	193.33398	20.195822	1393.6534	333.02734	-48.271381	1397.9485	352.67392	10.433271	1448.6603	389.2081	162.80092	927.62183	-71.443405	-114.93562	917.06421	-41.987122	56.467537	955.30243	-263.55658	-52.598408	947.10358	-250.0574
565	5.64	109.84391	1572.7726	-72.982559	-46.639359	1563.3063	-68.43631	101.14845	1564.8481	-197.67888	-25.328186	1568.4559	-213.65215	20.480118	1370.1427	-232.48961	-5.4500451	1118.558	-258.2507	56.625763	1304.4279	-55.092121	62.733128	1117.7892	-3.6074653	-80.970963	1311.2211	-235.79854	199.46858	1350.775	-181.7305	250.67955	1200.3875	-179.74359	256.77997	1018.8915	-209.6955	243.46956	924.16418	-126.85305	221.15834	829.91425	-108.23069	272.73563	822.57294	-154.41864	272.5997	746.57483	-105.26945	-86.666618	1394.9972	-129.73512	-127.0097	1379.9052	32.260372	-147.51663	1341.0048	140.87689	-68.26828	1391.3976	194.98491	-0.37106535	1393.9003	338.0401	-71.523094	1397.1796	350.01279	-13.845225	1447.954	394.53055	162.90761	927.56018	-71.152092	-114.89097	917.02155	-42.178394	56.935741	955.33356	-263.44119	-52.193527	947.15039	-250.16362
566	5.65	110.74261	1572.6785	-72.565132	-45.796547	1563.5114	-68.240715	102.19109	1564.7253	-197.31587	-24.245815	1568.6007	-213.64731	21.731371	1370.2107	-232.38721	-4.2944345	1118.4354	-258.20212	56.627628	1304.4019	-54.660488	62.340145	1117.6702	-3.365777	-79.374115	1311.1417	-236.49648	200.24232	1350.6813	-180.53342	251.32877	1200.2334	-178.45932	257.85275	1018.9308	-208.88284	244.30954	924.25812	-126.14885	221.89111	830.0022	-107.55001	273.52936	822.5863	-153.63133	273.40897	746.76434	-104.39578	-86.632591	1394.7136	-130.26758	-133.36232	1379.7668	30.641737	-158.15764	1340.1737	138.20093	-82.483833	1391.5422	196.14972	-21.267962	1394.0107	342.36996	-91.68486	1395.1221	355.50351	-38.668743	1446.9674	398.85172	162.96368	927.50562	-70.92099	-114.8638	916.96472	-42.342106	57.420265	955.38055	-263.38892	-51.756664	947.21521	-250.36755
567	5.66	111.56345	1572.5874	-72.223907	-45.018078	1563.6932	-68.135162	103.23415	1564.6339	-196.91351	-23.210562	1568.6428	-213.38731	22.971989	1370.2881	-232.133	-3.2273157	1118.3109	-258.10684	56.632217	1304.3658	-54.149647	61.899574	1117.4955	-3.1486251	-77.737488	1311.2059	-237.2924	200.99664	1350.6268	-179.30359	252.13329	1200.3751	-177.26294	258.83414	1019.0388	-208.19359	245.00662	924.28876	-125.54533	222.69168	830.10931	-106.88765	274.39108	822.66174	-152.88576	274.18613	746.8996	-103.48674	-86.490028	1394.5173	-130.76797	-139.7252	1379.5851	28.749184	-168.97212	1339.2773	135.15617	-96.570496	1391.4299	196.84816	-42.52544	1393.9069	345.85382	-114.28976	1393.5753	354.71124	-63.848259	1445.7178	402.03802	162.98361	927.41882	-70.753487	-114.89217	916.90674	-42.513081	57.877621	955.45337	-263.30527	-51.350719	947.28015	-250.45052
568	5.67	112.4669	1572.4823	-71.793091	-44.156746	1563.8696	-67.99791	104.31898	1564.515	-196.51045	-22.119005	1568.7269	-213.19719	24.142447	1370.3739	-231.86969	-2.1763484	1118.1879	-257.93826	56.700401	1304.3201	-53.644516	61.472656	1117.3551	-2.8675601	-76.17717	1311.1559	-237.72925	201.75618	1350.578	-178.06438	252.91849	1200.4092	-175.93776	259.83719	1019.1858	-207.38821	245.84492	924.39362	-124.83924	223.50397	830.23279	-106.22765	275.25537	822.75385	-152.1545	275.06982	747.06396	-102.66888	-86.313263	1394.3132	-131.12056	-146.06535	1379.2992	26.820879	-179.64011	1338.2667	131.73106	-110.71111	1391.0981	197.32059	-64.57885	1393.2556	348.52292	-137.52821	1392.3286	350.64206	-89.168968	1444.1364	404.23087	163.04071	927.28101	-70.586044	-114.87989	916.83392	-42.641705	58.291008	955.48828	-263.19696	-50.95142	947.33759	-250.54141
569	5.68	113.34293	1572.4244	-71.2845	-43.234234	1564.0266	-67.767944	105.447	1564.4181	-196.03476	-20.987097	1568.8304	-212.98027	25.31391	1370.4351	-231.62189	-1.1514559	1118.0145	-257.67029	56.763943	1304.2567	-53.052582	61.076118	1117.2065	-2.5342288	-74.616035	1311.1143	-238.21312	202.41553	1350.5532	-176.80252	253.69876	1200.5571	-174.75037	260.7814	1019.3299	-206.52359	246.55818	924.48462	-124.13618	224.29276	830.35986	-105.5768	276.20413	822.91766	-151.33572	275.81369	747.20483	-101.98972	-86.128494	1394.1156	-131.39708	-152.34866	1378.9962	24.748508	-189.92094	1337.2163	128.03619	-125.29394	1390.7959	196.85185	-85.957367	1392.5658	350.39828	-159.41451	1390.2095	349.1377	-114.48135	1442.3358	405.24734	163.08232	927.19171	-70.393867	-114.88886	916.76227	-42.776608	58.78463	955.56104	-263.06845	-50.606956	947.41663	-250.71344
570	5.69	114.24373	1572.3507	-70.81073	-42.404247	1564.1886	-67.637962	106.49406	1564.3365	-195.65549	-19.844849	1568.8976	-212.8028	26.411352	1370.5775	-231.44049	-0.13064495	1117.9602	-257.54086	56.821175	1304.2069	-52.410172	60.76384	1117.0819	-2.1749587	-73.118553	1311.0732	-238.46246	203.08627	1350.548	-175.71091	254.48921	1200.6525	-173.57483	261.67917	1019.4905	-205.71129	247.35791	924.66534	-123.34649	225.12497	830.46729	-104.96107	277.19019	823.09589	-150.52858	276.69147	747.3421	-101.22082	-85.99231	1393.9703	-131.50613	-158.53389	1378.5942	22.676617	-199.39441	1336.0577	123.98328	-139.51596	1390.5643	196.15533	-108.6211	1390.9315	351.72043	-179.44098	1387.2344	350.8176	-139.85938	1440.209	405.32306	163.11816	927.10278	-70.169601	-114.92748	916.67004	-42.925373	59.175316	955.64099	-262.96112	-50.260277	947.49213	-250.74178
571	5.7	115.22747	1572.3047	-70.376984	-41.454521	1564.3612	-67.313095	107.64663	1564.2651	-195.20116	-18.647207	1569.012	-212.53432	27.377321	1370.5876	-231.0208	0.87342453	1117.9574	-257.29514	56.879463	1304.1317	-51.845879	60.405964	1116.989	-1.828045	-71.775124	1311.0309	-238.64594	203.70853	1350.5149	-174.6566	255.20995	1200.7472	-172.44737	262.59106	1019.6272	-204.8356	248.08789	924.74792	-122.68414	225.94983	830.53796	-104.33559	278.0535	823.24359	-149.87619	277.54559	747.44958	-100.51474	-85.926796	1393.8201	-131.51691	-164.8372	1378.3219	20.164852	-209.34039	1335.2679	119.90068	-154.02266	1389.8553	195.07806	-131.11749	1389.1377	352.25693	-201.35838	1385.1332	347.77029	-165.28667	1437.889	404.54877	163.13789	927.00226	-69.98819	-114.95692	916.55353	-43.025463	59.526417	955.7149	-262.78766	-49.990742	947.51215	-250.70351
572	5.71	116.17735	1572.259	-69.958565	-40.523655	1564.5082	-67.113716	108.78224	1564.2062	-194.72969	-17.550459	1569.1011	-212.18477	28.246569	1370.6157	-230.52184	1.7202944	1117.9469	-257.02499	57.016048	1304.0959	-51.262787	60.154285	1116.8853	-1.4865532	-70.544464	1310.9653	-238.52094	204.30977	1350.5347	-173.75031	255.90694	1200.8319	-171.47192	263.46506	1019.7791	-203.93718	248.85506	924.79596	-121.87534	226.79639	830.55847	-103.76953	279.08136	823.39819	-149.10672	278.49884	747.51245	-99.910294	-85.874245	1393.6997	-131.38591	-170.76984	1378.1077	18.033018	-219.11008	1334.5173	115.70573	-168.06927	1389.217	193.63608	-153.34038	1387.4187	351.8031	-222.96568	1382.3373	343.52518	-190.85916	1435.2826	402.64066	163.22176	926.96991	-69.732857	-114.92871	916.44452	-43.13604	59.837185	955.83325	-262.70303	-49.728832	947.6062	-250.72307
573	5.72	117.17154	1572.2124	-69.455589	-39.52174	1564.6924	-66.821342	109.90853	1564.1113	-194.20738	-16.378752	1569.2476	-211.8763	28.978142	1370.6272	-229.9649	2.5527513	1117.9814	-256.72345	57.921082	1304.2518	-50.211113	59.95715	1116.7554	-1.1594442	-69.506836	1310.9702	-238.35541	204.89352	1350.5056	-172.90463	256.50082	1200.8965	-170.52499	264.33191	1019.8967	-202.99835	249.59848	924.78308	-121.13308	227.63051	830.52429	-103.13326	280.01703	823.47052	-148.41435	279.40305	747.45282	-99.335068	-85.850624	1393.6503	-131.10582	-176.65053	1377.9185	15.881205	-228.68311	1333.7432	111.22177	-182.04143	1388.5227	191.88925	-175.5667	1385.6074	350.67264	-244.46974	1379.6302	338.70721	-216.40189	1432.3879	399.91736	163.28867	926.88678	-69.520386	-114.88467	916.33325	-43.194267	60.094688	955.95416	-262.56677	-49.487129	947.69769	-250.69493
